<svg width="131" height="37" viewBox="0 0 131 37" fill="none" xmlns="http://www.w3.org/2000/svg">
<path fill-rule="evenodd" clip-rule="evenodd" d="M16.4771 0C7.23039 0.863772 0 8.80615 0 18.4992C0 28.217 7.23039 36.1594 16.4771 36.9984V0Z" fill="white"/>
<path fill-rule="evenodd" clip-rule="evenodd" d="M36.1021 20.1773V37C27.4062 36.2104 20.4888 29.1071 19.7199 20.1773H36.1021Z" fill="white"/>
<path fill-rule="evenodd" clip-rule="evenodd" d="M19.7921 16.8474V0C28.4641 0.814326 35.4055 7.91763 36.1744 16.8474H19.7921Z" fill="white"/>
<path d="M46.1 13.275V9.5H59.95V13.275H55.125V27H50.9V13.275H46.1ZM58.3234 21.25C58.3234 20.0333 58.6068 18.975 59.1734 18.075C59.7401 17.175 60.5234 16.475 61.5234 15.975C62.5234 15.475 63.6484 15.225 64.8984 15.225C66.1484 15.225 67.2651 15.475 68.2484 15.975C69.2484 16.475 70.0318 17.175 70.5984 18.075C71.1818 18.975 71.4734 20.0333 71.4734 21.25C71.4734 22.45 71.1818 23.5 70.5984 24.4C70.0318 25.3 69.2484 26 68.2484 26.5C67.2651 27 66.1484 27.25 64.8984 27.25C63.6484 27.25 62.5234 27 61.5234 26.5C60.5234 26 59.7401 25.3 59.1734 24.4C58.6068 23.5 58.3234 22.45 58.3234 21.25ZM62.1984 21.25C62.1984 21.85 62.3234 22.3667 62.5734 22.8C62.8234 23.2167 63.1484 23.5417 63.5484 23.775C63.9484 24.0083 64.3984 24.125 64.8984 24.125C65.3818 24.125 65.8234 24.0083 66.2234 23.775C66.6401 23.5417 66.9651 23.2167 67.1984 22.8C67.4484 22.3667 67.5734 21.85 67.5734 21.25C67.5734 20.65 67.4484 20.1333 67.1984 19.7C66.9651 19.2667 66.6401 18.9333 66.2234 18.7C65.8234 18.4667 65.3818 18.35 64.8984 18.35C64.3984 18.35 63.9484 18.4667 63.5484 18.7C63.1484 18.9333 62.8234 19.2667 62.5734 19.7C62.3234 20.1333 62.1984 20.65 62.1984 21.25ZM77.4451 15.5V27H73.7201V15.5H77.4451ZM80.7701 19.4C80.5701 19.2 80.3535 19.0417 80.1201 18.925C79.9035 18.8083 79.6285 18.75 79.2951 18.75C78.9285 18.75 78.6035 18.85 78.3201 19.05C78.0368 19.25 77.8201 19.5417 77.6701 19.925C77.5201 20.3083 77.4451 20.775 77.4451 21.325L76.5451 20C76.5451 19.0833 76.7201 18.2667 77.0701 17.55C77.4368 16.8333 77.9118 16.2667 78.4951 15.85C79.0785 15.4333 79.6868 15.225 80.3201 15.225C80.7368 15.225 81.1368 15.3083 81.5201 15.475C81.9035 15.6417 82.1951 15.875 82.3951 16.175L80.7701 19.4ZM86.9234 23.4C86.9234 23.7 86.9984 23.9583 87.1484 24.175C87.2984 24.375 87.4984 24.5333 87.7484 24.65C87.9984 24.75 88.2734 24.8 88.5734 24.8C89.0068 24.8 89.4068 24.7083 89.7734 24.525C90.1401 24.3417 90.4401 24.0667 90.6734 23.7C90.9068 23.3333 91.0234 22.8833 91.0234 22.35L91.4234 23.85C91.4234 24.5833 91.2234 25.2083 90.8234 25.725C90.4234 26.225 89.9068 26.6083 89.2734 26.875C88.6401 27.125 87.9568 27.25 87.2234 27.25C86.4901 27.25 85.8068 27.1167 85.1734 26.85C84.5568 26.5667 84.0568 26.15 83.6734 25.6C83.3068 25.05 83.1234 24.3833 83.1234 23.6C83.1234 22.5 83.5151 21.6333 84.2984 21C85.0818 20.35 86.1901 20.025 87.6234 20.025C88.3234 20.025 88.9484 20.0917 89.4984 20.225C90.0651 20.3583 90.5484 20.525 90.9484 20.725C91.3484 20.925 91.6484 21.1333 91.8484 21.35V23.025C91.4484 22.725 90.9818 22.5 90.4484 22.35C89.9318 22.1833 89.3818 22.1 88.7984 22.1C88.3484 22.1 87.9901 22.15 87.7234 22.25C87.4568 22.35 87.2568 22.5 87.1234 22.7C86.9901 22.8833 86.9234 23.1167 86.9234 23.4ZM85.2484 19.025L83.9734 16.5C84.6234 16.1833 85.4068 15.8833 86.3234 15.6C87.2401 15.3167 88.2401 15.175 89.3234 15.175C90.3401 15.175 91.2484 15.325 92.0484 15.625C92.8484 15.9083 93.4818 16.325 93.9484 16.875C94.4151 17.425 94.6484 18.1 94.6484 18.9V27H91.0234V19.75C91.0234 19.4667 90.9734 19.225 90.8734 19.025C90.7901 18.8083 90.6568 18.625 90.4734 18.475C90.2901 18.325 90.0568 18.2167 89.7734 18.15C89.5068 18.0833 89.1984 18.05 88.8484 18.05C88.3318 18.05 87.8234 18.1083 87.3234 18.225C86.8401 18.3417 86.4151 18.4833 86.0484 18.65C85.6818 18.8 85.4151 18.925 85.2484 19.025ZM106.2 7.5H109.975V27H106.2V7.5ZM96.8 21.25C96.8 19.95 97.0583 18.8583 97.575 17.975C98.1083 17.0917 98.7917 16.4167 99.625 15.95C100.458 15.4833 101.342 15.25 102.275 15.25C103.242 15.25 104.092 15.4917 104.825 15.975C105.575 16.4583 106.167 17.15 106.6 18.05C107.033 18.9333 107.25 20 107.25 21.25C107.25 22.4833 107.033 23.55 106.6 24.45C106.167 25.35 105.575 26.0417 104.825 26.525C104.092 27.0083 103.242 27.25 102.275 27.25C101.342 27.25 100.458 27.0167 99.625 26.55C98.7917 26.0833 98.1083 25.4083 97.575 24.525C97.0583 23.625 96.8 22.5333 96.8 21.25ZM100.775 21.25C100.775 21.85 100.9 22.375 101.15 22.825C101.4 23.2583 101.733 23.6 102.15 23.85C102.567 24.0833 103.025 24.2 103.525 24.2C103.958 24.2 104.375 24.0833 104.775 23.85C105.192 23.6167 105.533 23.2833 105.8 22.85C106.067 22.4 106.2 21.8667 106.2 21.25C106.2 20.6333 106.067 20.1083 105.8 19.675C105.533 19.225 105.192 18.8833 104.775 18.65C104.375 18.4167 103.958 18.3 103.525 18.3C103.025 18.3 102.567 18.425 102.15 18.675C101.733 18.9083 101.4 19.25 101.15 19.7C100.9 20.1333 100.775 20.65 100.775 21.25ZM112.23 21.25C112.23 20.0333 112.513 18.975 113.08 18.075C113.646 17.175 114.43 16.475 115.43 15.975C116.43 15.475 117.555 15.225 118.805 15.225C120.055 15.225 121.171 15.475 122.155 15.975C123.155 16.475 123.938 17.175 124.505 18.075C125.088 18.975 125.38 20.0333 125.38 21.25C125.38 22.45 125.088 23.5 124.505 24.4C123.938 25.3 123.155 26 122.155 26.5C121.171 27 120.055 27.25 118.805 27.25C117.555 27.25 116.43 27 115.43 26.5C114.43 26 113.646 25.3 113.08 24.4C112.513 23.5 112.23 22.45 112.23 21.25ZM116.105 21.25C116.105 21.85 116.23 22.3667 116.48 22.8C116.73 23.2167 117.055 23.5417 117.455 23.775C117.855 24.0083 118.305 24.125 118.805 24.125C119.288 24.125 119.73 24.0083 120.13 23.775C120.546 23.5417 120.871 23.2167 121.105 22.8C121.355 22.3667 121.48 21.85 121.48 21.25C121.48 20.65 121.355 20.1333 121.105 19.7C120.871 19.2667 120.546 18.9333 120.13 18.7C119.73 18.4667 119.288 18.35 118.805 18.35C118.305 18.35 117.855 18.4667 117.455 18.7C117.055 18.9333 116.73 19.2667 116.48 19.7C116.23 20.1333 116.105 20.65 116.105 21.25Z" fill="white"/>
</svg>
